<?xml version="1.0" standalone="no"?>
<!DOCTYPE svg PUBLIC "-//W3C//DTD SVG 20010904//EN"
 "http://www.w3.org/TR/2001/REC-SVG-20010904/DTD/svg10.dtd">
<svg version="1.0" xmlns="http://www.w3.org/2000/svg"
 width="1300.000000pt" height="1300.000000pt" viewBox="0 0 1300.000000 1300.000000"
 preserveAspectRatio="xMidYMid meet">
<metadata>
Created by potrace 1.14, written by Peter Selinger 2001-2017
</metadata>
<g transform="translate(0.000000,1300.000000) scale(0.100000,-0.100000)"
fill="#000000" stroke="none">
<path d="M7007 12724 c-1 -1 -65 -5 -142 -8 -77 -4 -162 -11 -190 -15 -27 -5
-71 -7 -96 -4 -26 3 -80 -1 -120 -10 -41 -8 -83 -15 -94 -14 -11 0 -47 -4 -80
-8 -33 -4 -76 -7 -96 -6 -19 0 -73 -6 -120 -15 -46 -8 -127 -19 -179 -24 -235
-20 -439 -41 -483 -50 -27 -6 -60 -10 -73 -10 -14 0 -35 -6 -47 -14 -12 -7
-56 -19 -97 -26 -41 -7 -79 -16 -85 -20 -5 -4 -46 -16 -90 -25 -44 -10 -94
-26 -111 -36 -33 -20 -59 -27 -204 -54 -47 -9 -105 -21 -130 -27 -25 -6 -68
-14 -96 -18 -28 -4 -60 -12 -70 -18 -11 -5 -43 -15 -72 -21 -29 -6 -72 -19
-95 -30 -23 -10 -64 -26 -92 -35 -27 -9 -70 -32 -94 -51 -24 -19 -53 -35 -65
-35 -12 0 -37 -9 -56 -20 -19 -11 -60 -33 -90 -48 -65 -33 -195 -116 -204
-130 -3 -5 -32 -19 -63 -32 -32 -12 -67 -26 -78 -32 -11 -6 -42 -22 -69 -36
-27 -13 -72 -42 -100 -63 -28 -22 -71 -47 -96 -56 -25 -9 -59 -29 -76 -43 -17
-14 -62 -44 -100 -65 -97 -54 -136 -84 -239 -180 -141 -133 -184 -171 -275
-247 -47 -39 -104 -93 -127 -122 -23 -28 -55 -58 -70 -67 -16 -8 -38 -31 -50
-50 -13 -19 -27 -38 -32 -43 -65 -61 -89 -88 -140 -159 -33 -45 -76 -100 -95
-122 -57 -65 -103 -128 -111 -155 -4 -14 -17 -36 -30 -50 -13 -14 -26 -36 -30
-49 -4 -13 -21 -40 -39 -60 -28 -33 -39 -49 -65 -98 -5 -10 -16 -38 -24 -63
-8 -25 -24 -68 -35 -96 -11 -29 -25 -76 -32 -105 -7 -30 -19 -64 -27 -77 -16
-25 -31 -95 -39 -182 -5 -47 -2 -60 18 -90 28 -42 52 -48 94 -25 32 17 164
164 187 208 7 12 23 37 36 55 21 30 43 77 112 242 12 30 28 62 35 70 6 8 26
43 42 76 17 34 37 68 45 75 7 8 32 40 56 72 24 31 47 57 50 57 4 0 14 15 23
33 17 35 55 83 166 206 37 40 87 99 112 132 25 32 65 72 90 89 25 18 65 52 90
75 58 56 147 132 201 170 23 17 70 58 106 92 91 88 184 155 289 209 50 26 109
60 130 75 21 16 64 42 94 57 30 15 74 40 98 55 24 16 55 33 70 40 15 6 44 22
64 34 21 13 43 23 49 23 7 0 28 12 48 27 62 48 414 219 487 237 83 21 212 58
314 91 41 13 108 29 149 35 40 6 81 15 90 19 41 22 218 61 346 76 77 9 160 22
185 29 100 31 455 93 571 100 30 2 95 11 144 20 50 9 124 18 165 20 41 3 107
9 145 15 205 33 1122 29 1318 -5 65 -11 139 -14 290 -11 305 6 565 -35 764
-119 75 -32 158 -58 223 -70 14 -3 34 -11 45 -18 19 -12 99 -38 160 -52 38 -9
137 -60 197 -102 26 -17 51 -32 57 -32 6 0 28 -15 48 -33 21 -18 54 -40 73
-47 19 -8 53 -28 75 -45 22 -18 60 -43 85 -56 25 -13 59 -34 76 -46 17 -13 35
-23 41 -23 5 0 18 -9 28 -20 10 -11 22 -20 27 -20 20 0 272 -265 302 -318 5
-9 22 -27 38 -40 15 -13 28 -31 28 -39 0 -25 -127 -11 -193 21 -29 13 -66 27
-82 31 -17 4 -53 16 -81 26 -48 19 -54 19 -89 5 l-37 -16 20 -32 c11 -18 38
-45 60 -61 62 -42 210 -112 272 -127 43 -10 63 -22 97 -59 24 -25 43 -50 43
-55 0 -5 23 -33 50 -62 67 -71 66 -89 -8 -133 -52 -30 -120 -46 -219 -50 -7
-1 -17 -10 -23 -22 -24 -44 38 -90 160 -119 30 -7 73 -25 95 -39 22 -14 58
-34 79 -43 21 -10 80 -43 131 -73 50 -30 97 -55 103 -55 8 0 83 -39 172 -89 8
-5 35 -17 60 -27 25 -10 53 -25 63 -33 45 -37 175 -62 205 -38 42 33 -22 158
-149 288 -54 55 -102 99 -108 99 -6 0 -27 15 -48 34 -21 19 -51 45 -68 59 -23
20 -27 28 -18 38 9 9 25 9 69 0 39 -7 61 -8 68 -1 5 5 18 10 27 10 10 0 30 11
45 24 l28 23 -22 54 c-17 41 -34 63 -70 89 -40 30 -50 45 -69 100 -12 36 -23
83 -23 105 -2 56 -30 136 -63 176 -15 19 -46 56 -67 82 -22 27 -40 53 -40 58
0 15 -77 87 -111 104 -16 9 -33 24 -39 35 -6 11 -16 20 -23 20 -7 0 -22 8 -33
18 -22 21 -34 28 -155 90 -97 50 -99 51 -204 118 -44 27 -102 59 -130 69 -27
10 -72 38 -100 63 -27 25 -61 52 -75 60 -31 19 -120 109 -120 121 0 5 -12 13
-27 19 -16 5 -36 18 -45 28 -98 108 -134 131 -260 169 -35 11 -67 28 -82 46
-14 16 -59 45 -98 65 -40 21 -102 52 -138 70 -36 18 -84 38 -107 43 -24 6 -60
15 -81 21 -21 5 -114 14 -206 19 -92 6 -171 13 -176 16 -9 5 -177 13 -710 31
-91 3 -250 4 -355 3 -104 -1 -208 -2 -230 -1 -22 1 -82 3 -133 5 -51 1 -94 2
-95 1z m3697 -1610 c23 -9 20 -44 -3 -44 -20 0 -35 25 -25 41 6 11 8 11 28 3z"/>
<path d="M7250 11452 c-40 -4 -80 -36 -80 -64 0 -46 116 -110 257 -143 57 -14
116 -31 133 -40 17 -9 55 -20 85 -26 46 -8 96 -27 210 -79 11 -5 37 -16 57
-24 20 -8 59 -32 86 -53 47 -36 80 -58 142 -94 15 -8 47 -32 70 -52 24 -20 59
-44 79 -54 44 -23 90 -52 115 -75 10 -9 40 -27 65 -39 25 -11 57 -31 71 -44
14 -12 43 -29 65 -36 51 -18 144 -71 171 -98 12 -12 25 -21 30 -21 5 0 35 -18
67 -40 31 -22 63 -40 71 -40 8 0 27 -7 42 -15 16 -8 41 -15 57 -15 24 0 27 4
27 31 0 25 -14 44 -75 104 -42 41 -86 77 -98 81 -12 4 -38 20 -57 35 -19 16
-40 29 -47 29 -7 0 -23 16 -36 35 -14 20 -48 50 -77 68 -31 19 -61 47 -74 69
-19 34 -68 76 -194 171 -24 17 -58 44 -75 58 -18 14 -47 32 -66 39 -19 8 -54
29 -79 48 -35 27 -186 102 -205 102 -2 0 -44 22 -93 49 -57 31 -112 52 -154
60 -69 13 -165 42 -198 60 -19 10 -225 19 -292 13z"/>
<path d="M5575 11143 c-62 -3 -272 -20 -359 -28 -28 -3 -64 -9 -80 -14 -29 -9
-234 -27 -266 -24 -16 2 -161 -29 -250 -53 -302 -81 -417 -119 -547 -181 -50
-24 -95 -43 -99 -43 -9 0 -87 -34 -129 -57 -16 -9 -66 -34 -109 -56 -44 -22
-103 -57 -132 -78 -28 -22 -74 -46 -101 -54 -28 -8 -66 -26 -85 -39 -19 -13
-53 -29 -74 -36 -22 -7 -71 -28 -111 -46 -40 -18 -85 -36 -100 -40 -34 -8
-142 -61 -163 -79 -8 -8 -58 -23 -110 -34 -143 -30 -192 -54 -355 -180 -86
-67 -134 -119 -194 -210 -36 -54 -66 -88 -95 -105 -22 -14 -57 -39 -76 -56
-19 -17 -70 -54 -112 -83 -54 -37 -87 -68 -112 -107 -42 -64 -44 -85 -13 -111
42 -35 108 -21 187 41 75 59 149 87 239 93 81 4 86 6 115 39 17 19 38 45 46
57 19 30 216 193 257 214 17 9 52 34 77 54 25 21 73 58 106 83 33 25 86 70
118 101 61 59 126 99 164 99 13 0 50 12 83 26 33 15 85 32 115 40 87 20 121
36 181 82 31 23 67 42 81 42 14 0 52 17 85 39 33 21 77 44 99 51 21 7 67 25
102 41 34 15 88 30 120 33 54 5 129 23 287 67 39 11 79 24 90 29 11 5 38 14
60 19 36 8 199 50 370 95 32 9 84 16 115 16 30 0 105 11 165 24 220 49 261 57
325 61 36 2 121 8 190 13 117 9 658 7 870 -3 243 -12 580 -54 635 -79 57 -26
130 -46 170 -46 22 0 58 -5 80 -10 22 -5 60 -12 85 -15 24 -4 56 -13 72 -21
15 -8 49 -14 75 -15 73 0 114 -18 127 -55 20 -58 54 -92 99 -99 23 -4 59 -16
79 -26 21 -11 47 -19 60 -19 12 0 45 -9 73 -19 58 -23 175 -57 225 -66 49 -9
122 -36 140 -51 21 -18 130 -34 157 -23 32 12 29 45 -6 77 -33 32 -171 102
-198 102 -11 0 -40 14 -66 30 -26 17 -52 30 -57 30 -5 0 -18 12 -30 27 -23 30
-108 81 -155 93 -16 5 -61 20 -100 35 -38 15 -93 33 -122 40 -28 7 -56 16 -62
19 -29 19 -207 59 -327 75 -34 4 -67 12 -75 16 -7 5 -31 12 -54 16 -55 10
-157 36 -235 58 -100 29 -179 41 -267 41 -45 0 -92 4 -106 9 -28 11 -403 54
-414 48 -5 -2 -37 0 -73 4 -36 5 -96 13 -135 19 -38 5 -86 12 -105 15 -19 3
-84 12 -145 21 -60 8 -129 19 -153 24 -23 6 -57 9 -75 8 -17 -1 -59 -3 -92 -5z"/>
<path d="M10375 10343 c-22 -6 -55 -32 -55 -44 0 -4 15 -17 33 -28 17 -12 46
-32 64 -45 18 -13 51 -26 75 -30 41 -7 61 -17 168 -90 52 -35 100 -77 100 -88
0 -5 -15 -25 -34 -45 -18 -21 -38 -47 -44 -59 -25 -48 33 -145 111 -186 39
-21 57 -22 221 -23 223 0 220 -1 214 101 -4 61 -11 83 -36 125 -18 28 -32 52
-32 55 0 11 -75 102 -102 123 -17 14 -56 37 -87 53 -31 15 -68 36 -83 45 -54
36 -121 73 -132 73 -6 0 -21 7 -32 15 -18 12 -101 26 -294 49 -19 3 -44 2 -55
-1z"/>
<path d="M4475 10270 c-12 -4 -27 -15 -34 -24 -19 -23 22 -89 91 -145 62 -53
71 -60 122 -106 21 -19 49 -35 61 -35 12 0 30 -9 40 -21 31 -33 136 -99 159
-99 31 0 165 -44 211 -69 63 -34 155 -26 155 14 0 35 -87 145 -114 145 -8 0
-21 11 -29 24 -9 13 -36 34 -61 45 -25 12 -55 30 -68 40 -13 9 -38 23 -56 31
-18 7 -38 20 -45 29 -27 37 -92 82 -217 149 -39 21 -182 36 -215 22z"/>
<path d="M3240 9910 c-19 -4 -48 -15 -65 -24 -16 -9 -35 -16 -41 -16 -19 0
-172 -157 -200 -207 -15 -26 -41 -67 -58 -91 -16 -23 -33 -63 -37 -90 -4 -26
-21 -85 -38 -132 -25 -72 -30 -98 -29 -175 1 -89 2 -90 35 -122 54 -52 101
-49 160 9 38 38 44 50 63 137 12 53 34 129 51 168 16 40 29 83 29 95 0 13 6
35 14 50 8 14 24 53 36 85 26 71 54 119 92 157 15 15 28 34 28 40 0 7 14 25
30 41 36 34 36 38 8 65 -23 21 -25 22 -78 10z"/>
<path d="M1083 9655 c-70 -30 -85 -110 -30 -162 35 -34 51 -40 142 -48 33 -3
75 -8 94 -11 51 -10 211 15 244 38 60 43 7 129 -88 142 -75 10 -157 27 -180
36 -36 15 -150 18 -182 5z"/>
<path d="M10899 9434 c-17 -21 -49 -121 -49 -155 0 -53 -50 -172 -89 -210 -20
-21 -49 -62 -64 -92 -29 -59 -29 -82 -7 -212 28 -158 44 -373 31 -415 -16 -54
-32 -161 -30 -200 0 -19 -4 -88 -9 -153 -10 -112 -12 -120 -46 -166 -20 -27
-43 -52 -52 -55 -22 -9 -54 -85 -54 -133 0 -33 6 -48 27 -67 46 -43 118 -76
181 -82 84 -9 154 24 243 114 37 37 84 81 105 98 42 34 180 124 190 124 4 0
56 24 118 54 135 66 195 81 290 72 64 -6 74 -10 109 -44 22 -20 53 -61 70 -90
18 -29 42 -70 54 -90 13 -20 23 -46 23 -57 0 -11 9 -33 20 -50 11 -16 20 -40
20 -51 0 -12 7 -38 15 -57 8 -20 12 -43 9 -51 -3 -8 -1 -39 5 -69 7 -29 12
-76 12 -103 0 -27 6 -69 13 -94 10 -36 11 -69 1 -165 -7 -66 -15 -156 -19
-200 -7 -90 -19 -150 -34 -168 -5 -7 -27 -45 -47 -84 -21 -40 -63 -102 -95
-138 -56 -63 -140 -135 -158 -135 -4 0 -17 -8 -28 -19 -11 -10 -31 -24 -45
-31 -13 -7 -46 -30 -74 -51 -27 -21 -79 -51 -115 -67 -36 -16 -83 -41 -104
-56 -21 -14 -45 -26 -53 -26 -8 0 -55 -24 -106 -54 -135 -79 -292 -141 -408
-160 -20 -4 -49 -17 -64 -31 -16 -13 -40 -27 -53 -30 -38 -9 -88 -52 -103 -87
-12 -29 -11 -32 12 -49 55 -42 61 -52 55 -92 -4 -23 -26 -65 -56 -106 -28 -38
-50 -73 -50 -77 0 -5 -13 -34 -29 -64 -16 -30 -34 -75 -41 -100 -6 -25 -22
-64 -35 -87 -13 -24 -31 -67 -39 -96 -15 -51 -119 -239 -156 -282 -28 -32
-171 -282 -219 -382 -11 -24 -38 -66 -60 -95 -22 -29 -43 -65 -46 -81 -4 -15
-39 -64 -79 -110 -39 -45 -87 -107 -106 -137 -19 -30 -55 -81 -80 -114 -25
-32 -58 -77 -74 -100 -16 -22 -52 -63 -80 -91 -47 -46 -95 -101 -145 -166 -11
-14 -23 -41 -28 -60 -7 -25 -20 -40 -52 -58 -23 -13 -45 -21 -48 -18 -14 15
15 73 73 142 35 43 64 81 64 86 0 4 10 20 23 36 13 15 40 66 61 113 21 47 45
96 54 110 21 31 58 126 79 200 14 53 14 55 -7 72 -47 38 -95 20 -136 -49 -15
-27 -56 -83 -91 -126 -35 -43 -63 -84 -63 -91 0 -8 -20 -38 -45 -67 -25 -29
-51 -68 -57 -86 -7 -18 -16 -33 -21 -33 -10 0 -67 -61 -67 -72 0 -5 -11 -25
-23 -46 -13 -20 -34 -63 -46 -95 -11 -32 -36 -82 -54 -110 -71 -111 -127 -232
-127 -275 0 -25 -40 -86 -71 -110 -10 -6 -29 -37 -43 -68 -28 -61 -44 -81
-122 -158 -29 -28 -73 -84 -98 -124 -26 -40 -72 -102 -104 -136 -31 -35 -77
-88 -100 -117 -99 -122 -132 -155 -228 -230 -144 -111 -263 -159 -398 -159
-33 0 -86 -5 -118 -12 -44 -9 -93 -9 -205 -1 -95 7 -154 8 -165 2 -13 -7 -25
-5 -40 6 -13 8 -35 15 -50 15 -15 0 -30 5 -33 10 -4 6 -25 8 -54 4 -54 -7
-124 13 -183 52 -21 13 -43 24 -49 24 -10 0 -47 17 -89 41 -32 19 -156 77
-178 83 -12 4 -27 16 -32 26 -6 10 -48 44 -95 75 -46 30 -89 65 -96 76 -6 11
-25 27 -42 34 -18 8 -47 25 -66 39 -19 14 -56 33 -82 41 -26 9 -52 22 -59 30
-16 20 -110 63 -151 70 -21 3 -42 12 -49 20 -7 8 -18 15 -25 15 -7 0 -18 7
-25 16 -17 20 -79 50 -154 75 -60 21 -135 64 -149 86 -4 7 -17 13 -27 13 -10
0 -21 4 -25 9 -3 5 -18 12 -34 16 -16 3 -35 13 -41 20 -6 8 -35 21 -64 29 -29
9 -60 24 -70 35 -10 11 -29 22 -44 26 -14 3 -31 12 -36 19 -6 6 -29 18 -51 26
-22 7 -62 28 -88 46 -27 19 -66 39 -87 45 -22 7 -51 25 -66 40 -15 16 -35 29
-43 29 -9 1 -41 14 -71 30 -78 43 -130 39 -130 -8 0 -30 113 -146 163 -167 18
-7 41 -23 52 -35 25 -28 143 -105 175 -115 14 -4 45 -23 69 -41 24 -19 48 -34
52 -34 14 0 10 -27 -3 -33 -21 -8 -119 9 -203 36 -44 14 -100 30 -125 37 -25
7 -61 19 -80 27 -19 8 -69 27 -110 40 -41 14 -86 31 -100 38 -14 8 -63 26
-110 40 -47 15 -116 43 -155 62 -119 59 -195 89 -246 98 -21 3 -48 14 -60 24
-13 10 -34 21 -45 25 -12 4 -29 15 -39 26 -10 11 -31 20 -47 20 -15 0 -28 4
-28 9 0 9 -71 37 -120 48 -14 3 -34 13 -45 23 -11 10 -31 21 -45 25 -14 4 -43
16 -65 26 -22 10 -93 32 -159 49 -65 17 -148 46 -185 64 -36 18 -84 39 -106
46 -22 7 -47 18 -55 25 -8 6 -31 21 -52 32 -65 38 -172 139 -208 199 -14 21
-39 59 -58 83 -18 24 -39 58 -46 76 -8 18 -28 43 -44 55 -17 12 -38 41 -48 64
-10 22 -22 43 -25 46 -4 3 -19 38 -33 78 -13 40 -34 85 -45 100 -10 15 -25 57
-31 92 -6 35 -18 82 -25 105 -20 57 -13 236 10 292 17 42 17 43 -10 90 -15 27
-41 73 -57 103 -17 30 -38 64 -47 75 -10 11 -26 40 -36 65 -10 25 -29 57 -42
71 -13 14 -29 43 -34 64 -6 21 -31 71 -55 111 -24 40 -44 78 -44 84 0 6 -16
41 -35 77 -19 36 -35 74 -35 83 0 10 -7 23 -15 30 -8 7 -15 22 -15 34 0 12 -7
31 -15 42 -17 22 -55 102 -55 116 0 6 -18 48 -40 94 -22 46 -42 96 -46 111
-12 55 -15 62 -32 68 -22 6 -42 77 -48 169 -3 37 -10 78 -17 90 -6 11 -17 68
-24 126 -17 150 -30 219 -44 236 -8 10 -13 67 -15 177 -2 93 -10 198 -19 247
-9 47 -20 110 -26 140 -16 86 -30 211 -29 258 1 24 -4 50 -10 57 -6 7 -13 41
-16 76 -5 56 -1 99 22 200 5 22 -2 35 -34 69 -23 22 -49 62 -58 88 -9 26 -23
53 -30 61 -19 21 -60 16 -104 -13 -22 -14 -46 -26 -55 -26 -22 0 -30 47 -16
100 14 54 4 90 -30 113 l-22 16 24 30 c29 36 134 121 209 169 144 92 167 132
112 193 -39 43 -101 49 -199 19 -76 -23 -118 -51 -194 -128 -25 -26 -61 -58
-78 -71 -17 -12 -40 -40 -51 -61 -11 -22 -36 -51 -56 -66 -19 -15 -44 -43 -55
-63 -11 -20 -31 -51 -44 -70 -37 -51 -35 -125 4 -169 46 -49 90 -39 136 31 16
25 94 87 109 87 17 0 -2 -87 -31 -143 -9 -17 -12 -39 -8 -58 7 -33 -15 -69
-42 -69 -17 0 -212 -181 -229 -212 -17 -32 -5 -66 32 -87 29 -18 45 -20 113
-14 57 4 80 2 86 -7 12 -20 25 -163 16 -174 -5 -6 -9 -22 -9 -36 0 -14 -1 -62
-2 -107 -1 -79 11 -141 35 -173 7 -8 18 -31 25 -50 7 -19 20 -42 27 -51 8 -9
19 -34 24 -55 23 -85 84 -154 136 -154 17 0 32 -14 57 -52 13 -21 17 -44 15
-95 -1 -37 1 -75 4 -83 8 -24 28 -119 37 -185 12 -88 28 -152 50 -198 11 -22
20 -49 20 -60 0 -11 13 -46 29 -77 17 -32 33 -74 37 -94 3 -20 12 -40 18 -44
6 -4 25 -41 40 -82 33 -85 55 -133 97 -205 16 -27 29 -58 29 -68 0 -10 9 -35
20 -55 11 -20 48 -95 84 -167 35 -71 71 -144 80 -161 9 -18 14 -38 11 -45 -7
-18 -169 -70 -217 -69 -51 0 -141 -42 -203 -95 -65 -55 -87 -97 -73 -137 11
-30 -5 -88 -24 -88 -5 0 -16 -17 -24 -37 -9 -21 -27 -50 -41 -65 -43 -45 -52
-181 -17 -248 18 -35 41 -116 49 -174 5 -35 15 -58 36 -78 16 -16 29 -37 29
-47 0 -9 24 -37 54 -61 30 -25 60 -57 67 -72 6 -16 17 -28 23 -28 6 0 53 -34
104 -75 51 -41 101 -75 111 -75 10 0 35 -13 56 -30 36 -28 85 -41 85 -21 0 5
13 14 29 21 31 12 62 7 84 -14 7 -7 42 -27 78 -44 64 -31 70 -31 188 -29 l122
2 42 -46 c23 -26 51 -59 62 -75 46 -66 161 -162 273 -229 51 -30 105 -63 120
-74 26 -18 74 -38 200 -82 29 -10 74 -29 100 -43 66 -33 170 -76 188 -76 8 0
36 -11 62 -24 26 -13 61 -26 77 -30 17 -4 48 -16 70 -26 22 -11 94 -36 160
-56 66 -20 136 -45 155 -54 19 -10 65 -25 103 -34 37 -10 114 -33 170 -52 56
-20 131 -40 166 -45 36 -6 78 -17 94 -26 17 -8 57 -24 91 -35 33 -11 78 -28
101 -38 51 -23 329 -113 415 -134 36 -9 106 -22 155 -30 90 -13 203 -39 260
-58 69 -23 296 -58 385 -60 63 -1 133 -27 180 -67 26 -22 63 -46 83 -55 20 -8
37 -19 37 -25 0 -11 -28 -41 -38 -41 -4 0 -21 -21 -38 -48 -26 -38 -42 -51
-85 -66 -55 -20 -165 -81 -175 -98 -3 -4 -1 -40 5 -79 l11 -70 -40 -85 c-22
-46 -40 -94 -40 -105 0 -12 -17 -74 -39 -138 -71 -215 -83 -262 -90 -364 -4
-56 -13 -112 -19 -124 -7 -12 -12 -34 -12 -48 0 -14 -5 -36 -12 -48 -12 -21
-20 -70 -36 -212 -4 -38 -11 -76 -16 -83 -13 -21 -31 -210 -40 -415 l-5 -107
307 2 307 3 3 22 c3 20 35 52 92 93 16 12 21 28 24 80 2 36 -1 72 -7 82 -8 13
-8 32 2 75 7 32 15 103 16 158 2 55 6 194 10 310 4 116 7 227 6 248 0 22 4 48
10 60 6 11 15 64 19 118 6 70 14 109 28 132 18 31 19 48 16 183 -2 82 0 172 5
199 5 28 13 90 16 138 5 65 11 90 22 94 22 9 174 -73 201 -107 21 -27 22 -32
9 -62 -22 -52 -37 -97 -62 -181 -22 -73 -27 -82 -100 -152 -74 -72 -77 -76
-69 -108 5 -17 9 -61 9 -97 1 -87 28 -166 64 -185 30 -15 75 -9 126 17 44 23
66 24 101 5 48 -25 58 -61 50 -185 -8 -143 -23 -228 -48 -278 -12 -23 -18 -49
-15 -57 3 -9 -1 -40 -9 -69 -8 -29 -19 -78 -24 -108 -5 -30 -16 -86 -25 -125
-9 -38 -22 -115 -30 -170 -7 -55 -16 -108 -20 -117 -7 -17 11 -18 294 -18 334
0 313 -5 286 71 -9 24 -17 81 -18 128 -2 48 -8 95 -14 106 -6 11 -14 61 -17
110 -4 50 -9 106 -10 125 -19 186 -18 214 6 250 13 19 44 46 69 60 26 14 53
31 61 38 18 15 31 148 16 175 -12 24 -1 57 20 57 26 -1 47 -21 70 -65 11 -22
34 -51 52 -63 17 -13 38 -39 46 -58 8 -19 19 -34 24 -34 6 0 29 -9 53 -19 131
-59 203 -15 247 150 10 38 24 79 33 92 8 12 18 38 22 57 10 50 34 128 55 180
10 25 21 78 25 119 l7 74 -37 -6 c-21 -4 -60 -24 -93 -49 -72 -56 -172 -175
-172 -205 0 -34 -43 -73 -79 -73 -26 0 -33 7 -58 58 -49 98 -94 172 -113 182
-9 5 -20 25 -23 45 -3 19 -20 52 -36 72 -36 43 -36 46 -15 68 11 10 26 14 47
10 31 -4 299 -17 427 -20 36 -1 83 3 104 8 22 5 55 10 75 12 55 6 228 35 248
42 50 18 101 65 131 120 17 32 42 73 56 92 14 19 26 42 26 52 0 9 11 33 25 53
14 20 25 41 25 46 0 12 48 100 66 120 7 8 21 35 32 60 28 64 57 86 110 81 7
-1 12 -17 12 -45 0 -25 4 -47 9 -50 4 -3 11 -20 15 -38 3 -17 17 -54 30 -82
13 -28 29 -82 36 -121 7 -38 20 -88 30 -110 10 -22 21 -59 25 -82 3 -22 13
-49 20 -60 8 -10 15 -27 15 -38 0 -11 14 -54 31 -95 30 -72 60 -165 73 -222 3
-15 15 -32 25 -37 17 -9 18 -21 15 -118 -4 -107 5 -163 31 -193 8 -8 25 -59
39 -114 22 -84 32 -107 72 -155 26 -31 54 -72 63 -91 8 -19 30 -52 48 -73 18
-20 33 -48 33 -60 0 -13 12 -52 26 -88 15 -35 33 -88 40 -118 8 -29 30 -85 48
-125 19 -39 37 -95 40 -124 11 -87 2 -82 153 -82 l135 0 -8 32 c-3 18 -13 43
-22 56 -9 15 -13 35 -9 58 4 24 1 47 -10 68 -9 17 -17 57 -18 91 -1 61 -30
127 -59 138 -9 4 -15 29 -18 76 -3 59 -8 75 -30 98 -15 15 -30 45 -33 66 -4
20 -22 57 -41 81 -19 25 -34 51 -34 59 0 20 -16 49 -85 150 -106 157 -108 162
-105 236 1 36 3 80 3 96 1 51 -24 219 -36 240 -6 11 -10 48 -8 82 2 67 -36
199 -69 238 -41 46 -70 123 -70 183 0 38 -7 71 -20 97 -11 22 -20 52 -20 67 0
15 -4 28 -9 28 -4 0 -11 26 -14 58 -6 71 -34 130 -81 168 -20 16 -50 41 -68
57 -18 15 -36 27 -40 27 -21 0 -3 58 36 118 58 89 128 152 168 152 30 0 109
62 139 108 21 34 46 55 100 84 92 50 196 124 233 167 17 18 52 65 79 105 27
39 79 103 117 141 37 39 79 93 93 120 14 28 43 66 64 86 26 25 48 61 68 110
31 81 78 151 140 214 22 22 48 60 59 85 10 25 23 55 29 67 6 13 51 66 102 118
68 71 96 108 109 145 22 60 90 165 146 223 55 58 72 99 81 192 8 81 46 214 93
317 23 52 29 57 63 63 88 14 117 50 137 176 18 104 37 152 70 167 13 6 105 14
203 17 183 6 198 8 318 45 164 50 381 161 446 228 20 20 52 48 72 62 45 31
129 134 162 199 13 27 29 52 35 56 5 3 10 29 10 57 0 28 7 71 15 97 8 25 21
82 30 126 10 44 21 96 26 115 4 19 11 51 14 71 3 21 17 53 30 73 14 20 30 57
36 81 6 25 15 45 20 45 5 0 9 16 9 35 0 20 7 52 15 72 8 19 15 51 15 70 0 19
7 48 16 66 9 17 20 67 25 112 14 129 20 169 30 179 12 13 12 79 0 92 -4 5 -5
35 -2 67 12 96 -5 197 -50 315 -23 59 -48 114 -54 122 -7 8 -22 33 -33 56 -11
22 -28 46 -37 54 -9 7 -32 38 -52 67 -20 30 -48 62 -62 70 -14 9 -48 31 -76
48 -69 43 -93 52 -161 60 -32 4 -67 12 -78 17 -36 19 -302 24 -403 8 -46 -8
-148 -35 -259 -70 -79 -25 -100 -7 -108 97 -7 77 2 158 39 383 8 52 21 138 27
190 6 53 19 112 30 134 13 25 18 49 14 70 -3 17 1 49 9 71 35 99 6 178 -81
216 -24 10 -61 30 -81 44 -44 30 -47 30 -64 9z m-9623 -1578 c19 -15 18 -16
-8 -64 -26 -46 -27 -55 -22 -128 3 -44 7 -140 8 -215 2 -75 5 -140 8 -145 16
-28 18 -86 3 -114 -18 -35 -47 -37 -54 -5 -2 11 -12 26 -22 33 -16 11 -18 21
-12 73 4 46 2 63 -10 77 -11 12 -15 39 -14 98 0 44 -3 86 -7 93 -4 6 -1 23 8
36 20 30 21 88 2 118 -31 50 -30 66 11 103 33 31 65 51 84 53 3 1 14 -5 25
-13z m718 -3073 c4 -9 4 -76 1 -147 -6 -108 -3 -152 14 -249 12 -66 27 -133
35 -150 19 -44 41 -112 57 -172 6 -27 27 -81 46 -118 41 -82 38 -109 -10 -97
-154 39 -208 54 -244 66 -48 17 -148 110 -169 158 -8 17 -37 67 -64 111 -27
44 -50 90 -50 101 0 12 -6 36 -14 54 -9 21 -11 44 -6 67 5 18 6 60 3 92 -8 84
8 123 74 176 30 25 63 45 73 45 9 0 29 9 43 20 70 55 197 81 211 43z m3888
-3701 c-7 -382 -12 -463 -32 -542 -19 -78 -37 -153 -53 -220 -22 -98 -69 -183
-82 -148 -12 30 25 550 43 623 6 22 13 95 17 163 11 207 14 221 67 274 36 36
43 11 40 -150z m3608 -721 c0 -6 -4 -13 -10 -16 -5 -3 -10 1 -10 9 0 9 5 16
10 16 6 0 10 -4 10 -9z"/>
<path d="M9217 9359 c-38 -21 -74 -39 -81 -39 -18 0 -56 -43 -56 -64 0 -47 90
-116 151 -116 26 0 199 -57 216 -72 16 -13 157 -60 230 -78 40 -9 61 -9 87 0
63 20 55 40 -63 159 -60 60 -126 118 -148 129 -22 11 -46 28 -53 38 -20 23
-157 84 -189 83 -14 0 -57 -18 -94 -40z"/>
<path d="M1347 9034 c-4 -4 -49 -11 -100 -16 -257 -21 -330 -32 -416 -63 -24
-8 -58 -15 -75 -15 -50 0 -130 -43 -154 -83 -49 -78 -8 -191 68 -189 38 1 144
24 240 52 36 11 148 35 250 54 102 19 211 46 242 59 84 34 148 82 148 109 0
26 -26 61 -55 76 -27 13 -138 25 -148 16z"/>
<path d="M9143 8972 c-43 -3 -73 -28 -73 -60 0 -25 55 -82 102 -107 49 -26
387 -140 448 -152 19 -3 49 -12 65 -18 17 -7 53 -16 80 -20 43 -5 53 -3 69 14
28 31 14 65 -43 102 -28 17 -52 38 -55 45 -3 8 -12 14 -19 14 -8 0 -20 7 -27
15 -7 8 -23 15 -35 15 -25 0 -136 52 -173 81 -21 16 -48 20 -146 20 -11 0 -27
4 -36 9 -48 26 -119 45 -157 42z"/>
<path d="M4008 8479 c-19 -19 -44 -56 -56 -84 -11 -27 -34 -81 -51 -119 -35
-78 -40 -147 -16 -216 18 -50 19 -230 2 -295 -19 -72 -4 -218 32 -308 6 -16
11 -41 11 -57 0 -16 4 -31 9 -35 5 -3 15 -30 22 -61 11 -47 10 -57 -2 -65 -32
-20 -85 21 -114 88 -7 17 -22 40 -33 51 -17 17 -18 26 -11 73 8 52 -1 108 -22
134 -4 6 -11 30 -15 53 -3 23 -13 47 -20 53 -8 6 -14 17 -14 24 0 25 -33 27
-52 3 -18 -24 -17 -39 8 -113 19 -56 18 -69 -13 -137 -24 -54 -25 -63 -14 -92
7 -17 15 -42 18 -56 2 -14 8 -34 12 -45 26 -63 40 -130 30 -141 -5 -7 -32 -18
-60 -24 -28 -7 -73 -28 -101 -47 -28 -20 -67 -40 -87 -45 -55 -15 -185 -114
-196 -148 -3 -10 -31 -44 -63 -76 -67 -69 -122 -149 -122 -178 0 -11 -9 -38
-20 -60 -19 -41 -61 -67 -190 -119 -31 -12 -76 -44 -195 -135 -17 -12 -48 -31
-70 -41 -22 -10 -55 -33 -74 -50 -19 -18 -48 -39 -65 -48 -17 -8 -39 -22 -48
-30 -9 -8 -27 -13 -39 -11 -28 4 -38 36 -43 134 -2 40 -11 85 -20 103 -14 26
-15 38 -6 66 6 19 8 45 4 57 -4 13 -6 53 -5 90 2 52 -3 76 -20 110 -20 39 -21
48 -10 99 6 30 11 77 11 103 0 26 6 68 14 94 7 26 19 70 25 97 18 76 58 180
109 282 41 84 45 96 36 130 -8 33 -13 38 -42 41 -24 2 -43 -4 -68 -23 -73 -56
-121 -111 -139 -160 -10 -27 -24 -59 -30 -70 -7 -11 -20 -47 -29 -80 -17 -58
-27 -90 -60 -185 -8 -25 -20 -76 -27 -115 -12 -70 -14 -95 -24 -305 -4 -63
-11 -127 -17 -143 -6 -15 -8 -45 -5 -67 3 -22 -1 -57 -9 -80 -8 -23 -11 -47
-7 -53 5 -7 8 -93 9 -192 1 -214 6 -252 39 -302 48 -74 55 -81 89 -93 31 -10
43 -7 113 22 64 27 92 47 154 108 41 41 89 92 104 114 44 58 172 136 225 136
17 0 48 -9 70 -20 44 -22 105 -26 165 -9 38 11 41 10 68 -22 16 -19 42 -62 57
-95 15 -34 33 -65 39 -68 6 -4 11 -18 11 -31 0 -24 -13 -35 -112 -99 -41 -26
-156 -29 -229 -5 -42 14 -78 17 -156 14 -56 -1 -106 -6 -112 -10 -39 -23 42
-120 109 -130 31 -5 112 -27 204 -56 16 -5 64 -9 107 -9 89 0 160 25 220 77
18 17 51 36 71 43 36 13 38 12 105 -31 103 -69 163 -103 213 -123 25 -10 52
-24 60 -31 20 -18 60 -33 145 -55 121 -30 145 -31 215 -9 36 12 104 29 152 39
119 26 150 41 210 103 34 34 88 72 148 105 78 42 105 62 147 114 66 81 90 124
99 173 4 22 13 57 20 79 12 33 12 45 -1 82 -8 24 -12 57 -9 73 8 37 -11 71
-39 71 -31 -1 -49 -17 -85 -76 -38 -61 -98 -113 -212 -184 -47 -29 -94 -61
-106 -72 -33 -30 -122 -59 -209 -69 -333 -36 -379 -36 -467 5 -18 8 -52 20
-74 26 -23 5 -44 17 -47 25 -4 8 -24 23 -47 35 -22 11 -40 25 -40 30 0 5 -21
31 -47 58 -56 58 -113 135 -131 177 -9 20 -12 58 -9 115 5 96 9 108 49 167 15
23 37 63 48 88 45 104 151 193 281 236 35 12 85 32 111 45 50 25 97 29 161 15
27 -7 53 -5 85 4 26 7 70 12 97 10 28 -2 88 -7 135 -11 75 -5 88 -4 109 13 22
18 23 27 25 130 1 74 6 116 15 127 7 8 52 27 99 42 48 14 107 37 132 52 85 50
135 72 160 72 29 0 70 -24 119 -69 19 -17 38 -31 43 -31 4 0 10 0 13 0 3 0 18
-6 33 -14 63 -33 223 -37 292 -9 50 21 145 100 167 139 12 21 31 55 41 74 11
19 28 43 39 52 26 24 128 48 264 63 64 6 121 15 126 18 6 4 46 7 89 8 44 0
106 7 139 14 87 19 316 39 360 32 21 -4 43 -11 48 -16 12 -12 -16 -76 -70
-158 -19 -29 -40 -68 -48 -88 -8 -19 -28 -44 -43 -55 -15 -11 -36 -35 -46 -53
-41 -74 -231 -184 -376 -216 -19 -5 -46 -13 -60 -20 -14 -6 -63 -20 -110 -32
-72 -18 -115 -21 -280 -20 -204 0 -348 11 -390 29 -38 16 -208 53 -270 59 -62
6 -130 -16 -130 -41 0 -9 15 -23 33 -32 17 -9 47 -28 65 -42 41 -31 124 -67
217 -94 143 -41 251 -56 455 -63 140 -4 186 -2 225 10 28 8 69 15 92 15 23 0
66 9 95 19 29 11 82 27 116 35 91 23 197 67 278 116 140 86 344 275 344 320 0
16 82 186 117 243 32 51 59 60 183 62 108 2 127 7 188 53 23 18 32 32 32 53 0
32 -30 69 -56 69 -9 0 -36 13 -60 30 -45 30 -121 60 -154 60 -24 0 -119 47
-148 74 -26 23 -43 60 -74 156 -11 36 -30 73 -41 83 -37 33 -92 16 -110 -34
-3 -9 1 -45 9 -80 21 -98 19 -138 -8 -148 -67 -26 -276 -71 -329 -71 -24 0
-91 -9 -149 -20 -58 -11 -114 -19 -125 -18 -11 1 -54 -6 -95 -15 -135 -31
-163 -36 -309 -57 -79 -11 -147 -23 -152 -26 -5 -3 -41 -5 -81 -5 -41 0 -87
-7 -108 -15 -19 -9 -70 -22 -114 -30 -43 -9 -88 -21 -100 -29 -11 -7 -43 -16
-71 -20 -59 -8 -213 -63 -275 -98 -56 -32 -188 -81 -300 -113 -118 -33 -164
-26 -221 32 l-42 43 -3 148 c-7 361 -9 385 -32 437 -27 60 -28 93 -1 181 74
252 80 289 51 325 l-19 23 -35 -34z m1252 -1092 c0 -16 -41 -37 -73 -37 -12 0
-30 -7 -41 -15 -13 -10 -24 -11 -37 -5 -9 6 -25 7 -33 4 -20 -8 -33 23 -17 39
7 7 53 15 104 18 51 3 93 6 95 7 1 1 2 -4 2 -11z"/>
<path d="M9226 6984 c-21 -8 -63 -30 -92 -49 -30 -20 -78 -44 -106 -54 -111
-39 -175 -63 -238 -89 -85 -35 -312 -151 -325 -167 -5 -6 -50 -33 -99 -59 -50
-26 -102 -56 -118 -67 -15 -11 -52 -28 -83 -39 -30 -10 -70 -30 -87 -43 -31
-24 -182 -69 -272 -81 -22 -3 -76 -23 -120 -46 -45 -22 -90 -40 -101 -40 -11
0 -33 -7 -48 -15 -16 -8 -52 -22 -80 -30 -28 -8 -60 -21 -71 -28 -12 -8 -34
-17 -49 -21 -40 -10 -127 -93 -127 -121 0 -44 56 -62 134 -44 71 16 165 49
201 69 35 21 120 40 175 40 35 0 44 -6 93 -63 31 -34 59 -75 62 -90 12 -48
-29 -168 -75 -222 -10 -11 -25 -34 -33 -50 -17 -34 -94 -88 -159 -111 -58 -20
-260 -30 -299 -14 -16 7 -29 16 -29 21 0 5 -15 9 -34 9 -19 0 -38 5 -41 10 -3
6 -16 10 -29 10 -13 0 -31 9 -42 21 -10 12 -39 32 -64 44 -25 13 -58 36 -75
52 -16 16 -53 39 -81 52 l-52 23 -56 -21 c-31 -11 -69 -21 -84 -21 -43 0 -110
-54 -118 -96 -3 -19 -4 -44 -1 -57 20 -80 29 -108 52 -154 27 -58 32 -119 14
-174 -16 -46 -75 -127 -100 -134 -10 -4 -41 -28 -67 -54 -41 -42 -55 -49 -112
-60 -36 -7 -81 -16 -100 -21 -75 -18 -194 -28 -219 -18 -49 18 -129 78 -172
128 -24 28 -57 54 -76 61 -18 6 -33 14 -33 18 0 11 -110 124 -140 144 -29 20
-76 22 -83 5 -10 -26 7 -144 25 -173 10 -16 18 -40 18 -53 0 -13 10 -52 21
-88 18 -56 20 -79 14 -147 -4 -45 -13 -94 -21 -109 -8 -15 -14 -52 -14 -82 l0
-55 -60 -49 c-42 -34 -78 -53 -123 -65 -34 -10 -75 -23 -92 -29 -61 -22 -166
-25 -225 -7 -30 10 -73 23 -95 28 -28 8 -45 20 -57 41 -11 20 -25 30 -40 30
-17 0 -29 10 -42 35 -19 34 -75 85 -95 85 -5 0 -27 21 -48 47 -21 25 -51 60
-67 77 -16 17 -35 45 -42 61 -21 47 -39 65 -75 75 -51 15 -77 12 -100 -11 -23
-23 -21 -49 12 -112 10 -21 19 -42 19 -48 0 -6 6 -25 14 -42 19 -44 32 -99 45
-187 7 -41 18 -85 26 -97 28 -42 13 -93 -43 -146 -76 -72 -429 -76 -562 -7
-30 16 -73 34 -95 39 -58 15 -115 57 -115 84 0 25 39 88 97 159 28 34 62 58
129 92 104 53 136 79 127 102 -11 28 -85 13 -333 -66 -63 -21 -142 -43 -175
-49 -78 -16 -112 -25 -215 -57 -171 -53 -196 -54 -410 -20 -110 18 -217 12
-270 -14 -36 -18 -140 -121 -140 -139 0 -5 11 -22 24 -38 14 -16 28 -41 31
-56 9 -35 50 -67 85 -67 15 0 45 7 65 16 21 8 81 20 134 25 53 6 128 17 166
25 39 9 103 20 144 26 68 11 77 10 115 -9 94 -48 141 -64 191 -62 33 1 64 -6
92 -20 23 -12 46 -21 51 -21 5 0 26 -13 47 -30 20 -16 46 -32 58 -35 25 -8
213 -92 302 -135 33 -17 101 -39 151 -51 69 -16 100 -28 123 -50 47 -42 151
-114 189 -129 18 -7 37 -21 43 -31 5 -11 16 -19 23 -19 7 0 33 -14 57 -32 61
-45 155 -88 190 -88 45 0 180 -56 242 -100 30 -22 58 -40 62 -40 4 0 32 -21
63 -47 64 -54 95 -73 117 -73 8 0 20 -9 27 -20 7 -11 19 -20 27 -20 7 0 28 -8
45 -19 17 -10 42 -22 56 -26 14 -4 42 -22 63 -40 21 -18 51 -35 66 -38 16 -4
31 -14 33 -25 6 -21 86 -62 122 -62 13 0 29 -7 36 -15 16 -19 91 -60 137 -75
21 -7 47 -21 58 -31 11 -10 38 -25 60 -34 21 -9 65 -35 97 -57 33 -21 73 -44
91 -50 18 -6 42 -22 54 -35 12 -12 28 -23 36 -23 8 0 20 -7 27 -15 7 -8 23
-15 35 -15 14 0 35 -14 53 -35 17 -19 42 -37 55 -40 14 -4 60 -24 102 -46 43
-21 84 -39 92 -39 7 0 21 -4 31 -9 38 -19 96 -33 177 -41 47 -5 88 -11 93 -14
4 -2 54 -10 110 -16 56 -6 118 -18 138 -26 50 -21 313 -30 426 -15 96 13 136
27 187 65 19 14 40 26 46 26 15 0 125 106 126 122 1 7 1 19 0 26 -1 8 2 19 7
25 5 7 37 65 70 130 34 64 72 132 86 150 37 50 104 190 153 322 24 66 51 130
59 142 8 12 14 29 14 36 0 13 26 85 51 142 5 11 13 43 19 70 13 57 47 154 84
238 15 33 31 93 37 135 6 43 17 102 24 132 35 139 48 184 70 242 48 128 95
282 95 310 0 9 11 48 25 86 14 38 25 84 25 101 0 18 7 45 15 61 9 17 13 40 10
53 -4 13 3 48 14 78 11 29 20 68 19 84 -1 40 12 97 26 114 6 8 14 50 18 95 15
176 21 222 32 241 6 11 11 45 12 75 0 30 8 82 16 114 9 33 14 65 12 71 -3 6 3
34 13 61 9 27 18 72 18 99 5 144 18 296 32 340 18 63 34 95 45 95 5 0 57 22
116 49 59 27 149 59 199 71 53 13 112 34 137 51 42 26 45 30 39 62 -3 20 -1
37 6 41 17 11 13 61 -6 78 -10 8 -40 23 -67 32 -64 21 -273 21 -330 0z m-596
-2050 c11 -12 10 -25 -4 -72 -10 -31 -26 -73 -36 -92 -72 -141 -91 -207 -115
-391 -12 -90 -19 -114 -44 -150 -17 -24 -33 -60 -35 -79 -3 -19 -10 -48 -17
-65 -15 -39 -78 -267 -89 -325 -15 -79 -60 -192 -112 -280 -15 -25 -34 -67
-43 -95 -10 -27 -23 -57 -30 -65 -21 -24 -52 -92 -65 -140 -19 -72 -48 -129
-76 -147 -14 -9 -45 -46 -69 -83 -71 -109 -85 -117 -280 -164 -72 -17 -101
-17 -390 0 -119 7 -221 31 -236 56 -4 7 -3 20 2 30 18 34 -31 145 -73 166 -32
15 -96 109 -104 152 -4 17 -15 37 -26 44 -29 20 -48 62 -46 101 1 20 -6 43
-15 53 -9 10 -16 31 -16 48 0 16 -4 58 -10 94 -15 100 -6 243 18 294 12 23 21
51 21 62 0 21 56 104 70 104 4 0 25 35 46 77 21 42 52 93 70 113 17 19 39 51
49 70 74 147 192 278 302 334 69 34 77 34 68 -6 -4 -18 -6 -40 -6 -48 3 -41 0
-62 -15 -102 -9 -24 -22 -80 -29 -126 -12 -72 -12 -89 2 -127 19 -56 60 -87
123 -93 53 -5 82 7 106 43 15 23 15 29 -6 80 -18 44 -20 61 -12 83 6 15 18 63
27 107 9 44 23 94 30 110 7 17 16 52 20 78 5 35 16 58 40 85 128 139 128 139
195 160 36 11 81 29 100 39 19 10 58 18 85 19 118 4 232 15 263 25 19 6 64 11
102 10 37 0 85 6 106 13 54 20 138 20 154 0z"/>
<path d="M8273 465 c-37 -26 -48 -89 -28 -160 9 -33 21 -68 26 -77 5 -10 9
-23 9 -30 0 -7 9 -55 21 -105 l21 -93 110 0 110 0 -5 32 c-38 242 -40 249 -83
301 -13 16 -24 34 -24 42 0 7 -19 34 -41 59 -45 50 -77 58 -116 31z"/>
</g>
</svg>
